# xmcd
#
# Track frame offsets:
# 150
# 15946
# 30095
# 44346
# 56849
# 70635
# 83674
# 99247
# 112567
# 128061
# 139835
# 152639
# 165812
# 178698
# 191774
# 205532
# 217353
# 231350
# 246099
# 259458
# 273432
# 288604
# 302043
# 314598
#
# Disc length: 4398 seconds
#
#
# Revision: 1
# Processed by: cddbd v1.5.2PL0 Copyright (c) Steve Scherf et al.
# Submitted via: FreeRIP 2.96 
#
DISCID=48112c18
DTITLE=Jimmie Rodgers - The Singing Brakeman
DYEAR=1999
DGENRE=Country
TTITLE0=Blue Yodel (T for Texas)
TTITLE1=The Soldier's Sweetheart
TTITLE2=The Brakeman's Blues
TTITLE3=Waiting For a Train
TTITLE4=My Little Lady
TTITLE5=Frankie and Johnny
TTITLE6=Gambling Bar Room Blues
TTITLE7=Blue Yodel No. 8 (Mule Skinner Blues)
TTITLE8=Roll Along Kentucky Moon
TTITLE9=Never No Mo' Blues
TTITLE10=Blue Yodel No. 10
TTITLE11=Miss the Mississippi and You
TTITLE12=Peach Pickin' Time Down in Georgia
TTITLE13=Pistol Packin' Papa
TTITLE14=T.B. Blues
TTITLE15=Mississippi River Blues
TTITLE16=I'm Free From the Chain Gang Now
TTITLE17=Yodelling Cowboy
TTITLE18=Old Pal of My Heart
TTITLE19=The Sailor's Plea
TTITLE20=Mother, the Queen of My Heart
TTITLE21=Train Whistle Blues
TTITLE22=Any Old Time
TTITLE23=Jimmie Rodgers Last Blue Yodel
EXTD=
EXTT0=
EXTT1=
EXTT2=
EXTT3=
EXTT4=
EXTT5=
EXTT6=
EXTT7=
EXTT8=
EXTT9=
EXTT10=
EXTT11=
EXTT12=
EXTT13=
EXTT14=
EXTT15=
EXTT16=
EXTT17=
EXTT18=
EXTT19=
EXTT20=
EXTT21=
EXTT22=
EXTT23=
PLAYORDER=
